<svg width="364" height="486" viewBox="0 0 364 486" fill="none" xmlns="http://www.w3.org/2000/svg">
<path d="M113.75 68.3437C113.75 30.5981 144.306 0 182 0C219.694 0 250.25 30.5981 250.25 68.3437C250.25 106.088 219.694 136.687 182 136.687C144.306 136.687 113.75 106.088 113.75 68.3437ZM355.115 69.647C343.27 57.7846 324.064 57.7846 312.218 69.647L230.102 151.875H133.897L51.7817 69.647C39.9365 57.7846 20.7298 57.7846 8.8846 69.647C-2.96153 81.5094 -2.96153 100.742 8.8846 112.604L98.5832 202.425V455.625C98.5832 472.401 112.164 486 128.917 486H144.083C160.836 486 174.417 472.401 174.417 455.625V349.312H189.583V455.625C189.583 472.401 203.164 486 219.917 486H235.083C251.836 486 265.417 472.401 265.417 455.625V202.425L355.115 112.603C366.962 100.741 366.962 81.5094 355.115 69.647Z" fill="#DA2127"/>
</svg>
